<mxfile host="app.diagrams.net" agent="Mozilla/5.0 (Windows NT 10.0; Win64; x64; rv:128.0) Gecko/20100101 Firefox/128.0" version="24.8.2">
  <diagram id="C5RBs43oDa-KdzZeNtuy" name="Page-1">
    <mxGraphModel dx="1025" dy="1011" grid="1" gridSize="10" guides="1" tooltips="1" connect="1" arrows="1" fold="1" page="1" pageScale="1" pageWidth="827" pageHeight="1169" math="0" shadow="0">
      <root>
        <mxCell id="WIyWlLk6GJQsqaUBKTNV-0" />
        <mxCell id="WIyWlLk6GJQsqaUBKTNV-1" parent="WIyWlLk6GJQsqaUBKTNV-0" />
        <mxCell id="zkfFHV4jXpPFQw0GAbJ--0" value="Allocate" style="swimlane;fontStyle=2;align=center;verticalAlign=top;childLayout=stackLayout;horizontal=1;startSize=26;horizontalStack=0;resizeParent=1;resizeLast=0;collapsible=1;marginBottom=0;rounded=0;shadow=0;strokeWidth=1;fontFamily=Courier New;" parent="WIyWlLk6GJQsqaUBKTNV-1" vertex="1">
          <mxGeometry x="80" y="80" width="360" height="90" as="geometry">
            <mxRectangle x="230" y="140" width="160" height="26" as="alternateBounds" />
          </mxGeometry>
        </mxCell>
        <mxCell id="zkfFHV4jXpPFQw0GAbJ--1" value="=&gt; (::DynList)" style="text;align=center;verticalAlign=top;spacingLeft=4;spacingRight=4;overflow=hidden;rotatable=0;points=[[0,0.5],[1,0.5]];portConstraint=eastwest;fontFamily=Courier New;" parent="zkfFHV4jXpPFQw0GAbJ--0" vertex="1">
          <mxGeometry y="26" width="360" height="26" as="geometry" />
        </mxCell>
        <mxCell id="98w87D4PLKCgbTlnpIyC-10" style="edgeStyle=orthogonalEdgeStyle;rounded=0;orthogonalLoop=1;jettySize=auto;html=1;entryX=0.5;entryY=1;entryDx=0;entryDy=0;" parent="WIyWlLk6GJQsqaUBKTNV-1" source="98w87D4PLKCgbTlnpIyC-5" target="zkfFHV4jXpPFQw0GAbJ--0" edge="1">
          <mxGeometry relative="1" as="geometry" />
        </mxCell>
        <mxCell id="98w87D4PLKCgbTlnpIyC-5" value="CreatePopulate" style="swimlane;fontStyle=2;align=center;verticalAlign=top;childLayout=stackLayout;horizontal=1;startSize=26;horizontalStack=0;resizeParent=1;resizeLast=0;collapsible=1;marginBottom=0;rounded=0;shadow=0;strokeWidth=1;fontFamily=Courier New;" parent="WIyWlLk6GJQsqaUBKTNV-1" vertex="1">
          <mxGeometry x="80" y="200" width="360" height="90" as="geometry">
            <mxRectangle x="230" y="140" width="160" height="26" as="alternateBounds" />
          </mxGeometry>
        </mxCell>
        <mxCell id="98w87D4PLKCgbTlnpIyC-6" value="(Size::Int, Container::Chunk) =&gt; (::DynList)" style="text;align=center;verticalAlign=top;spacingLeft=4;spacingRight=4;overflow=hidden;rotatable=0;points=[[0,0.5],[1,0.5]];portConstraint=eastwest;fontFamily=Courier New;" parent="98w87D4PLKCgbTlnpIyC-5" vertex="1">
          <mxGeometry y="26" width="360" height="26" as="geometry" />
        </mxCell>
        <mxCell id="98w87D4PLKCgbTlnpIyC-7" value="Allocates DynList object and populates it with size and container." style="text;align=left;verticalAlign=top;spacingLeft=4;spacingRight=4;overflow=hidden;rotatable=0;points=[[0,0.5],[1,0.5]];portConstraint=eastwest;rounded=0;shadow=0;html=0;fontSize=9;fontFamily=Courier New;whiteSpace=wrap;" parent="98w87D4PLKCgbTlnpIyC-5" vertex="1">
          <mxGeometry y="52" width="360" height="26" as="geometry" />
        </mxCell>
        <mxCell id="98w87D4PLKCgbTlnpIyC-15" style="edgeStyle=orthogonalEdgeStyle;rounded=0;orthogonalLoop=1;jettySize=auto;html=1;entryX=0.5;entryY=1;entryDx=0;entryDy=0;" parent="WIyWlLk6GJQsqaUBKTNV-1" source="98w87D4PLKCgbTlnpIyC-12" target="98w87D4PLKCgbTlnpIyC-5" edge="1">
          <mxGeometry relative="1" as="geometry" />
        </mxCell>
        <mxCell id="98w87D4PLKCgbTlnpIyC-12" value="CreatePopulateInferSize" style="swimlane;fontStyle=2;align=center;verticalAlign=top;childLayout=stackLayout;horizontal=1;startSize=26;horizontalStack=0;resizeParent=1;resizeLast=0;collapsible=1;marginBottom=0;rounded=0;shadow=0;strokeWidth=1;fontFamily=Courier New;" parent="WIyWlLk6GJQsqaUBKTNV-1" vertex="1">
          <mxGeometry x="80" y="320" width="360" height="90" as="geometry">
            <mxRectangle x="230" y="140" width="160" height="26" as="alternateBounds" />
          </mxGeometry>
        </mxCell>
        <mxCell id="98w87D4PLKCgbTlnpIyC-13" value="(Container::Chunk) =&gt; (::DynList)" style="text;align=center;verticalAlign=top;spacingLeft=4;spacingRight=4;overflow=hidden;rotatable=0;points=[[0,0.5],[1,0.5]];portConstraint=eastwest;fontFamily=Courier New;" parent="98w87D4PLKCgbTlnpIyC-12" vertex="1">
          <mxGeometry y="26" width="360" height="26" as="geometry" />
        </mxCell>
        <mxCell id="98w87D4PLKCgbTlnpIyC-14" value="Allocates DynList object and populates it with only container, while inferring the size from the capacity of the container." style="text;align=left;verticalAlign=top;spacingLeft=4;spacingRight=4;overflow=hidden;rotatable=0;points=[[0,0.5],[1,0.5]];portConstraint=eastwest;rounded=0;shadow=0;html=1;fontSize=9;fontFamily=Courier New;whiteSpace=wrap;" parent="98w87D4PLKCgbTlnpIyC-12" vertex="1">
          <mxGeometry y="52" width="360" height="26" as="geometry" />
        </mxCell>
        <mxCell id="98w87D4PLKCgbTlnpIyC-17" value="&lt;div&gt;DynList&lt;/div&gt;" style="swimlane;whiteSpace=wrap;html=1;" parent="WIyWlLk6GJQsqaUBKTNV-1" vertex="1">
          <mxGeometry x="40" y="40" width="1890" height="800" as="geometry" />
        </mxCell>
        <mxCell id="JBY5YZTSFnoMEUicHJw0-3" style="edgeStyle=orthogonalEdgeStyle;rounded=0;orthogonalLoop=1;jettySize=auto;html=1;" parent="98w87D4PLKCgbTlnpIyC-17" source="JBY5YZTSFnoMEUicHJw0-0" edge="1">
          <mxGeometry relative="1" as="geometry">
            <mxPoint x="220" y="370" as="targetPoint" />
          </mxGeometry>
        </mxCell>
        <mxCell id="JBY5YZTSFnoMEUicHJw0-0" value="CreateEmpty" style="swimlane;fontStyle=2;align=center;verticalAlign=top;childLayout=stackLayout;horizontal=1;startSize=26;horizontalStack=0;resizeParent=1;resizeLast=0;collapsible=1;marginBottom=0;rounded=0;shadow=0;strokeWidth=1;fontFamily=Courier New;" parent="98w87D4PLKCgbTlnpIyC-17" vertex="1">
          <mxGeometry x="40" y="400" width="360" height="90" as="geometry">
            <mxRectangle x="230" y="140" width="160" height="26" as="alternateBounds" />
          </mxGeometry>
        </mxCell>
        <mxCell id="JBY5YZTSFnoMEUicHJw0-1" value="=&gt; (::DynList)" style="text;align=center;verticalAlign=top;spacingLeft=4;spacingRight=4;overflow=hidden;rotatable=0;points=[[0,0.5],[1,0.5]];portConstraint=eastwest;fontFamily=Courier New;" parent="JBY5YZTSFnoMEUicHJw0-0" vertex="1">
          <mxGeometry y="26" width="360" height="26" as="geometry" />
        </mxCell>
        <mxCell id="JBY5YZTSFnoMEUicHJw0-2" value="Allocates DynList object and populates it with an empty container." style="text;align=left;verticalAlign=top;spacingLeft=4;spacingRight=4;overflow=hidden;rotatable=0;points=[[0,0.5],[1,0.5]];portConstraint=eastwest;rounded=0;shadow=0;html=0;fontSize=9;fontFamily=Courier New;whiteSpace=wrap;" parent="JBY5YZTSFnoMEUicHJw0-0" vertex="1">
          <mxGeometry y="52" width="360" height="26" as="geometry" />
        </mxCell>
        <mxCell id="zkfFHV4jXpPFQw0GAbJ--2" value="Allocates empty DynList object on heap&#xa;" style="text;align=left;verticalAlign=top;spacingLeft=4;spacingRight=4;overflow=hidden;rotatable=0;points=[[0,0.5],[1,0.5]];portConstraint=eastwest;rounded=0;shadow=0;html=0;fontSize=9;fontFamily=Courier New;whiteSpace=wrap;" parent="98w87D4PLKCgbTlnpIyC-17" vertex="1">
          <mxGeometry x="40" y="92" width="360" height="28" as="geometry" />
        </mxCell>
        <mxCell id="JBY5YZTSFnoMEUicHJw0-5" value="CreateCopyChunk" style="swimlane;fontStyle=2;align=center;verticalAlign=top;childLayout=stackLayout;horizontal=1;startSize=26;horizontalStack=0;resizeParent=1;resizeLast=0;collapsible=1;marginBottom=0;rounded=0;shadow=0;strokeWidth=1;fontFamily=Courier New;" parent="98w87D4PLKCgbTlnpIyC-17" vertex="1">
          <mxGeometry x="440" y="400" width="360" height="90" as="geometry">
            <mxRectangle x="230" y="140" width="160" height="26" as="alternateBounds" />
          </mxGeometry>
        </mxCell>
        <mxCell id="JBY5YZTSFnoMEUicHJw0-6" value="(::Chunk) =&gt; (::DynList)" style="text;align=center;verticalAlign=top;spacingLeft=4;spacingRight=4;overflow=hidden;rotatable=0;points=[[0,0.5],[1,0.5]];portConstraint=eastwest;fontFamily=Courier New;" parent="JBY5YZTSFnoMEUicHJw0-5" vertex="1">
          <mxGeometry y="26" width="360" height="26" as="geometry" />
        </mxCell>
        <mxCell id="JBY5YZTSFnoMEUicHJw0-7" value="Allocates DynList object and populates it by copying the given chunk and using it as the container, while also inferring the size." style="text;align=left;verticalAlign=top;spacingLeft=4;spacingRight=4;overflow=hidden;rotatable=0;points=[[0,0.5],[1,0.5]];portConstraint=eastwest;rounded=0;shadow=0;html=0;fontSize=9;fontFamily=Courier New;whiteSpace=wrap;" parent="JBY5YZTSFnoMEUicHJw0-5" vertex="1">
          <mxGeometry y="52" width="360" height="26" as="geometry" />
        </mxCell>
        <mxCell id="JBY5YZTSFnoMEUicHJw0-16" value="Size" style="swimlane;fontStyle=2;align=center;verticalAlign=top;childLayout=stackLayout;horizontal=1;startSize=26;horizontalStack=0;resizeParent=1;resizeLast=0;collapsible=1;marginBottom=0;rounded=0;shadow=0;strokeWidth=1;fontFamily=Courier New;" parent="98w87D4PLKCgbTlnpIyC-17" vertex="1">
          <mxGeometry x="440" y="40" width="360" height="90" as="geometry">
            <mxRectangle x="230" y="140" width="160" height="26" as="alternateBounds" />
          </mxGeometry>
        </mxCell>
        <mxCell id="JBY5YZTSFnoMEUicHJw0-17" value="(::DynList) =&gt; (Size::Int)" style="text;align=center;verticalAlign=top;spacingLeft=4;spacingRight=4;overflow=hidden;rotatable=0;points=[[0,0.5],[1,0.5]];portConstraint=eastwest;fontFamily=Courier New;" parent="JBY5YZTSFnoMEUicHJw0-16" vertex="1">
          <mxGeometry y="26" width="360" height="26" as="geometry" />
        </mxCell>
        <mxCell id="JBY5YZTSFnoMEUicHJw0-18" value="Getter for the size of a DynList object." style="text;align=left;verticalAlign=top;spacingLeft=4;spacingRight=4;overflow=hidden;rotatable=0;points=[[0,0.5],[1,0.5]];portConstraint=eastwest;rounded=0;shadow=0;html=0;fontSize=9;fontFamily=Courier New;whiteSpace=wrap;" parent="98w87D4PLKCgbTlnpIyC-17" vertex="1">
          <mxGeometry x="440" y="92" width="360" height="28" as="geometry" />
        </mxCell>
        <mxCell id="JBY5YZTSFnoMEUicHJw0-19" value="Container" style="swimlane;fontStyle=2;align=center;verticalAlign=top;childLayout=stackLayout;horizontal=1;startSize=26;horizontalStack=0;resizeParent=1;resizeLast=0;collapsible=1;marginBottom=0;rounded=0;shadow=0;strokeWidth=1;fontFamily=Courier New;" parent="98w87D4PLKCgbTlnpIyC-17" vertex="1">
          <mxGeometry x="840" y="40" width="360" height="90" as="geometry">
            <mxRectangle x="230" y="140" width="160" height="26" as="alternateBounds" />
          </mxGeometry>
        </mxCell>
        <mxCell id="JBY5YZTSFnoMEUicHJw0-20" value="(::DynList) =&gt; (Container::Chunk)" style="text;align=center;verticalAlign=top;spacingLeft=4;spacingRight=4;overflow=hidden;rotatable=0;points=[[0,0.5],[1,0.5]];portConstraint=eastwest;fontFamily=Courier New;" parent="JBY5YZTSFnoMEUicHJw0-19" vertex="1">
          <mxGeometry y="26" width="360" height="26" as="geometry" />
        </mxCell>
        <mxCell id="JBY5YZTSFnoMEUicHJw0-21" value="Getter for the container of a DynList object, returns base pointer." style="text;align=left;verticalAlign=top;spacingLeft=4;spacingRight=4;overflow=hidden;rotatable=0;points=[[0,0.5],[1,0.5]];portConstraint=eastwest;rounded=0;shadow=0;html=0;fontSize=9;fontFamily=Courier New;whiteSpace=wrap;" parent="98w87D4PLKCgbTlnpIyC-17" vertex="1">
          <mxGeometry x="841" y="92" width="360" height="28" as="geometry" />
        </mxCell>
        <mxCell id="JBY5YZTSFnoMEUicHJw0-26" style="edgeStyle=orthogonalEdgeStyle;rounded=0;orthogonalLoop=1;jettySize=auto;html=1;entryX=0.5;entryY=1;entryDx=0;entryDy=0;" parent="98w87D4PLKCgbTlnpIyC-17" source="JBY5YZTSFnoMEUicHJw0-22" target="JBY5YZTSFnoMEUicHJw0-16" edge="1">
          <mxGeometry relative="1" as="geometry" />
        </mxCell>
        <mxCell id="JBY5YZTSFnoMEUicHJw0-22" value="IsEmpty" style="swimlane;fontStyle=2;align=center;verticalAlign=top;childLayout=stackLayout;horizontal=1;startSize=26;horizontalStack=0;resizeParent=1;resizeLast=0;collapsible=1;marginBottom=0;rounded=0;shadow=0;strokeWidth=1;fontFamily=Courier New;" parent="98w87D4PLKCgbTlnpIyC-17" vertex="1">
          <mxGeometry x="440" y="160" width="360" height="90" as="geometry">
            <mxRectangle x="230" y="140" width="160" height="26" as="alternateBounds" />
          </mxGeometry>
        </mxCell>
        <mxCell id="JBY5YZTSFnoMEUicHJw0-23" value="(::DynList) =&gt; (Empty::Bool)" style="text;align=center;verticalAlign=top;spacingLeft=4;spacingRight=4;overflow=hidden;rotatable=0;points=[[0,0.5],[1,0.5]];portConstraint=eastwest;fontFamily=Courier New;" parent="JBY5YZTSFnoMEUicHJw0-22" vertex="1">
          <mxGeometry y="26" width="360" height="26" as="geometry" />
        </mxCell>
        <mxCell id="JBY5YZTSFnoMEUicHJw0-24" value="Check if a DynList object is empty." style="text;align=left;verticalAlign=top;spacingLeft=4;spacingRight=4;overflow=hidden;rotatable=0;points=[[0,0.5],[1,0.5]];portConstraint=eastwest;rounded=0;shadow=0;html=0;fontSize=9;fontFamily=Courier New;whiteSpace=wrap;" parent="98w87D4PLKCgbTlnpIyC-17" vertex="1">
          <mxGeometry x="440" y="212" width="360" height="28" as="geometry" />
        </mxCell>
        <mxCell id="JBY5YZTSFnoMEUicHJw0-27" value="Delete" style="swimlane;fontStyle=2;align=center;verticalAlign=top;childLayout=stackLayout;horizontal=1;startSize=26;horizontalStack=0;resizeParent=1;resizeLast=0;collapsible=1;marginBottom=0;rounded=0;shadow=0;strokeWidth=1;fontFamily=Courier New;" parent="98w87D4PLKCgbTlnpIyC-17" vertex="1">
          <mxGeometry x="1240" y="40" width="360" height="90" as="geometry">
            <mxRectangle x="230" y="140" width="160" height="26" as="alternateBounds" />
          </mxGeometry>
        </mxCell>
        <mxCell id="JBY5YZTSFnoMEUicHJw0-28" value="(::DynList)" style="text;align=center;verticalAlign=top;spacingLeft=4;spacingRight=4;overflow=hidden;rotatable=0;points=[[0,0.5],[1,0.5]];portConstraint=eastwest;fontFamily=Courier New;" parent="JBY5YZTSFnoMEUicHJw0-27" vertex="1">
          <mxGeometry y="26" width="360" height="26" as="geometry" />
        </mxCell>
        <mxCell id="JBY5YZTSFnoMEUicHJw0-29" value="Frees a DynList object and its container." style="text;align=left;verticalAlign=top;spacingLeft=4;spacingRight=4;overflow=hidden;rotatable=0;points=[[0,0.5],[1,0.5]];portConstraint=eastwest;rounded=0;shadow=0;html=0;fontSize=9;fontFamily=Courier New;whiteSpace=wrap;" parent="98w87D4PLKCgbTlnpIyC-17" vertex="1">
          <mxGeometry x="1240" y="92" width="360" height="28" as="geometry" />
        </mxCell>
        <mxCell id="JBY5YZTSFnoMEUicHJw0-57" style="edgeStyle=orthogonalEdgeStyle;rounded=0;orthogonalLoop=1;jettySize=auto;html=1;" parent="98w87D4PLKCgbTlnpIyC-17" source="JBY5YZTSFnoMEUicHJw0-52" edge="1">
          <mxGeometry relative="1" as="geometry">
            <mxPoint x="1020" y="130" as="targetPoint" />
            <Array as="points">
              <mxPoint x="1030" y="380" />
              <mxPoint x="830" y="380" />
              <mxPoint x="830" y="150" />
              <mxPoint x="1020" y="150" />
            </Array>
          </mxGeometry>
        </mxCell>
        <mxCell id="JBY5YZTSFnoMEUicHJw0-52" value="CreateCopyList" style="swimlane;fontStyle=2;align=center;verticalAlign=top;childLayout=stackLayout;horizontal=1;startSize=26;horizontalStack=0;resizeParent=1;resizeLast=0;collapsible=1;marginBottom=0;rounded=0;shadow=0;strokeWidth=1;fontFamily=Courier New;" parent="98w87D4PLKCgbTlnpIyC-17" vertex="1">
          <mxGeometry x="840" y="400" width="360" height="90" as="geometry">
            <mxRectangle x="230" y="140" width="160" height="26" as="alternateBounds" />
          </mxGeometry>
        </mxCell>
        <mxCell id="JBY5YZTSFnoMEUicHJw0-53" value="(::DynList) =&gt; (::DynList)" style="text;align=center;verticalAlign=top;spacingLeft=4;spacingRight=4;overflow=hidden;rotatable=0;points=[[0,0.5],[1,0.5]];portConstraint=eastwest;fontFamily=Courier New;" parent="JBY5YZTSFnoMEUicHJw0-52" vertex="1">
          <mxGeometry y="26" width="360" height="26" as="geometry" />
        </mxCell>
        <mxCell id="JBY5YZTSFnoMEUicHJw0-54" value="Makes a deep copy of a DynList object." style="text;align=left;verticalAlign=top;spacingLeft=4;spacingRight=4;overflow=hidden;rotatable=0;points=[[0,0.5],[1,0.5]];portConstraint=eastwest;rounded=0;shadow=0;html=0;fontSize=9;fontFamily=Courier New;whiteSpace=wrap;" parent="JBY5YZTSFnoMEUicHJw0-52" vertex="1">
          <mxGeometry y="52" width="360" height="26" as="geometry" />
        </mxCell>
        <mxCell id="JBY5YZTSFnoMEUicHJw0-56" value="" style="endArrow=none;html=1;rounded=0;edgeStyle=orthogonalEdgeStyle;" parent="98w87D4PLKCgbTlnpIyC-17" edge="1">
          <mxGeometry width="50" height="50" relative="1" as="geometry">
            <mxPoint x="620" y="390" as="sourcePoint" />
            <mxPoint x="1020" y="400" as="targetPoint" />
            <Array as="points">
              <mxPoint x="1020" y="390" />
            </Array>
          </mxGeometry>
        </mxCell>
        <mxCell id="JBY5YZTSFnoMEUicHJw0-62" style="edgeStyle=orthogonalEdgeStyle;rounded=0;orthogonalLoop=1;jettySize=auto;html=1;entryX=0.5;entryY=1;entryDx=0;entryDy=0;" parent="98w87D4PLKCgbTlnpIyC-17" source="JBY5YZTSFnoMEUicHJw0-58" target="JBY5YZTSFnoMEUicHJw0-19" edge="1">
          <mxGeometry relative="1" as="geometry">
            <mxPoint x="1021.0000000000002" y="140" as="targetPoint" />
            <Array as="points" />
          </mxGeometry>
        </mxCell>
        <mxCell id="JBY5YZTSFnoMEUicHJw0-58" value="Reserve" style="swimlane;fontStyle=2;align=center;verticalAlign=top;childLayout=stackLayout;horizontal=1;startSize=26;horizontalStack=0;resizeParent=1;resizeLast=0;collapsible=1;marginBottom=0;rounded=0;shadow=0;strokeWidth=1;fontFamily=Courier New;" parent="98w87D4PLKCgbTlnpIyC-17" vertex="1">
          <mxGeometry x="840" y="160" width="360" height="90" as="geometry">
            <mxRectangle x="230" y="140" width="160" height="26" as="alternateBounds" />
          </mxGeometry>
        </mxCell>
        <mxCell id="JBY5YZTSFnoMEUicHJw0-59" value="(::DynList,  Capacity::Int)" style="text;align=center;verticalAlign=top;spacingLeft=4;spacingRight=4;overflow=hidden;rotatable=0;points=[[0,0.5],[1,0.5]];portConstraint=eastwest;fontFamily=Courier New;" parent="JBY5YZTSFnoMEUicHJw0-58" vertex="1">
          <mxGeometry y="26" width="360" height="26" as="geometry" />
        </mxCell>
        <mxCell id="JBY5YZTSFnoMEUicHJw0-60" value="Reserves Capacity in a DynList object, resizing container of necessary." style="text;align=left;verticalAlign=top;spacingLeft=4;spacingRight=4;overflow=hidden;rotatable=0;points=[[0,0.5],[1,0.5]];portConstraint=eastwest;rounded=0;shadow=0;html=0;fontSize=9;fontFamily=Courier New;whiteSpace=wrap;" parent="JBY5YZTSFnoMEUicHJw0-58" vertex="1">
          <mxGeometry y="52" width="360" height="26" as="geometry" />
        </mxCell>
        <mxCell id="JBY5YZTSFnoMEUicHJw0-11" value="" style="endArrow=none;html=1;rounded=0;edgeStyle=orthogonalEdgeStyle;entryX=0.5;entryY=0;entryDx=0;entryDy=0;" parent="WIyWlLk6GJQsqaUBKTNV-1" target="JBY5YZTSFnoMEUicHJw0-5" edge="1">
          <mxGeometry width="50" height="50" relative="1" as="geometry">
            <mxPoint x="260" y="430" as="sourcePoint" />
            <mxPoint x="660" y="420" as="targetPoint" />
            <Array as="points">
              <mxPoint x="660" y="430" />
            </Array>
          </mxGeometry>
        </mxCell>
      </root>
    </mxGraphModel>
  </diagram>
</mxfile>
